# xmcd
#
# Track frame offsets: 
#        150
#        18301
#        30163
#        47488
#        63402
#        82033
#        98084
#        113367
#        131821
#        147182
#        162432
#        182105
#
# Disc length: 2717 seconds
#
# Revision: 0
# Processed by: cddbd v1.5.2PL0 Copyright (c) Steve Scherf et al.
# Submitted via: ExactAudioCopy v1.0b3
#
DISCID=930a9b0c
DTITLE=J. Holiday - Guilty Conscience
DYEAR=2014
DGENRE=R&B
TTITLE0=Incredible
TTITLE1=Thinkin About You
TTITLE2=Cloud 9
TTITLE3=After We F***
TTITLE4=Guilty Conscience
TTITLE5=Ms. Get Around
TTITLE6=Wrong Turn
TTITLE7=Home Wrecker
TTITLE8=Dumb
TTITLE9=Come Back Home
TTITLE10=Where Are You Now
TTITLE11=Heaven
EXTD=
EXTT0=
EXTT1=
EXTT2=
EXTT3=
EXTT4=
EXTT5=
EXTT6=
EXTT7=
EXTT8=
EXTT9=
EXTT10=
EXTT11=
PLAYORDER=
